<mxfile host="Electron" modified="2024-05-02T18:56:43.980Z" agent="Mozilla/5.0 (Windows NT 10.0; Win64; x64) AppleWebKit/537.36 (KHTML, like Gecko) draw.io/21.7.5 Chrome/114.0.5735.289 Electron/25.8.1 Safari/537.36" etag="wi6sNnxg9RG-POvcghLF" version="21.7.5" type="device">
  <diagram name="Page-1" id="T2utbqDAJhY4V-opfCZ-">
    <mxGraphModel dx="555" dy="1021" grid="1" gridSize="10" guides="1" tooltips="1" connect="1" arrows="1" fold="1" page="1" pageScale="1" pageWidth="827" pageHeight="1169" math="0" shadow="0">
      <root>
        <mxCell id="0" />
        <mxCell id="1" parent="0" />
        <mxCell id="ErJHk9rbV6wRSDwfODP1-1" value="&lt;p style=&quot;margin:0px;margin-top:4px;text-align:center;&quot;&gt;&lt;i&gt;&amp;lt;&amp;lt;widget&amp;gt;&amp;gt;&lt;/i&gt;&lt;br&gt;&lt;b&gt;ControlPanel&lt;/b&gt;&lt;/p&gt;&lt;hr size=&quot;1&quot;&gt;&lt;p style=&quot;margin:0px;margin-left:4px;&quot;&gt;- poolingPeriod:Integer&lt;/p&gt;&lt;hr size=&quot;1&quot;&gt;&lt;p style=&quot;margin:0px;margin-left:4px;&quot;&gt;+ &amp;lt;&amp;lt;create&amp;gt;&amp;gt;ControlPanel(module:SensingModule, period:Integer)&lt;/p&gt;&lt;p style=&quot;margin:0px;margin-left:4px;&quot;&gt;+ updateView()&lt;/p&gt;&lt;p style=&quot;margin:0px;margin-left:4px;&quot;&gt;- createCallback(period:Integer)&lt;/p&gt;&lt;p style=&quot;margin:0px;margin-left:4px;&quot;&gt;- displayTemp(temp:Real)&lt;/p&gt;&lt;p style=&quot;margin:0px;margin-left:4px;&quot;&gt;- displayHumid(humid:Real)&lt;/p&gt;" style="verticalAlign=top;align=left;overflow=fill;fontSize=12;fontFamily=Helvetica;html=1;whiteSpace=wrap;" vertex="1" parent="1">
          <mxGeometry x="300" y="490" width="360" height="150" as="geometry" />
        </mxCell>
        <mxCell id="ErJHk9rbV6wRSDwfODP1-2" value="&lt;p style=&quot;margin:0px;margin-top:4px;text-align:center;&quot;&gt;&lt;i&gt;&amp;lt;&amp;lt;Abstract&amp;gt;&lt;/i&gt;&lt;br&gt;&lt;b&gt;SensingModule&lt;/b&gt;&lt;/p&gt;&lt;hr size=&quot;1&quot;&gt;&lt;p style=&quot;margin:0px;margin-left:4px;&quot;&gt;-&lt;/p&gt;&lt;hr size=&quot;1&quot;&gt;&lt;p style=&quot;margin:0px;margin-left:4px;&quot;&gt;+ &amp;lt;&amp;lt;abstract&amp;gt;&amp;gt; acquireTemp():Real&lt;/p&gt;&lt;p style=&quot;margin:0px;margin-left:4px;&quot;&gt;+ &amp;lt;&amp;lt;abstract&amp;gt;&amp;gt; acquireHumid():Real&lt;/p&gt;&lt;p style=&quot;margin:0px;margin-left:4px;&quot;&gt;+ reset&lt;/p&gt;&lt;p style=&quot;margin:0px;margin-left:4px;&quot;&gt;+ autocalibrate()&lt;/p&gt;" style="verticalAlign=top;align=left;overflow=fill;fontSize=12;fontFamily=Helvetica;html=1;whiteSpace=wrap;" vertex="1" parent="1">
          <mxGeometry x="375" y="720" width="210" height="140" as="geometry" />
        </mxCell>
        <mxCell id="ErJHk9rbV6wRSDwfODP1-3" value="" style="endArrow=classic;html=1;rounded=0;exitX=0.5;exitY=1;exitDx=0;exitDy=0;" edge="1" parent="1" source="ErJHk9rbV6wRSDwfODP1-1" target="ErJHk9rbV6wRSDwfODP1-2">
          <mxGeometry width="50" height="50" relative="1" as="geometry">
            <mxPoint x="470" y="770" as="sourcePoint" />
            <mxPoint x="520" y="720" as="targetPoint" />
          </mxGeometry>
        </mxCell>
        <mxCell id="ErJHk9rbV6wRSDwfODP1-4" value="module 1" style="text;html=1;align=center;verticalAlign=middle;resizable=0;points=[];autosize=1;strokeColor=none;fillColor=none;" vertex="1" parent="1">
          <mxGeometry x="480" y="658" width="70" height="30" as="geometry" />
        </mxCell>
        <mxCell id="ErJHk9rbV6wRSDwfODP1-5" value="HighResolution" style="swimlane;fontStyle=1;align=center;verticalAlign=top;childLayout=stackLayout;horizontal=1;startSize=26;horizontalStack=0;resizeParent=1;resizeParentMax=0;resizeLast=0;collapsible=1;marginBottom=0;whiteSpace=wrap;html=1;" vertex="1" parent="1">
          <mxGeometry x="220" y="910" width="140" height="100" as="geometry" />
        </mxCell>
        <mxCell id="ErJHk9rbV6wRSDwfODP1-6" value="-" style="text;strokeColor=none;fillColor=none;align=left;verticalAlign=top;spacingLeft=4;spacingRight=4;overflow=hidden;rotatable=0;points=[[0,0.5],[1,0.5]];portConstraint=eastwest;whiteSpace=wrap;html=1;" vertex="1" parent="ErJHk9rbV6wRSDwfODP1-5">
          <mxGeometry y="26" width="140" height="26" as="geometry" />
        </mxCell>
        <mxCell id="ErJHk9rbV6wRSDwfODP1-7" value="" style="line;strokeWidth=1;fillColor=none;align=left;verticalAlign=middle;spacingTop=-1;spacingLeft=3;spacingRight=3;rotatable=0;labelPosition=right;points=[];portConstraint=eastwest;strokeColor=inherit;" vertex="1" parent="ErJHk9rbV6wRSDwfODP1-5">
          <mxGeometry y="52" width="140" height="8" as="geometry" />
        </mxCell>
        <mxCell id="ErJHk9rbV6wRSDwfODP1-8" value="+ acquireTemp():Real&lt;br&gt;+ acquireHumid():Real" style="text;strokeColor=none;fillColor=none;align=left;verticalAlign=top;spacingLeft=4;spacingRight=4;overflow=hidden;rotatable=0;points=[[0,0.5],[1,0.5]];portConstraint=eastwest;whiteSpace=wrap;html=1;" vertex="1" parent="ErJHk9rbV6wRSDwfODP1-5">
          <mxGeometry y="60" width="140" height="40" as="geometry" />
        </mxCell>
        <mxCell id="ErJHk9rbV6wRSDwfODP1-9" value="MediumResolution" style="swimlane;fontStyle=1;align=center;verticalAlign=top;childLayout=stackLayout;horizontal=1;startSize=26;horizontalStack=0;resizeParent=1;resizeParentMax=0;resizeLast=0;collapsible=1;marginBottom=0;whiteSpace=wrap;html=1;" vertex="1" parent="1">
          <mxGeometry x="410" y="910" width="140" height="100" as="geometry" />
        </mxCell>
        <mxCell id="ErJHk9rbV6wRSDwfODP1-10" value="-" style="text;strokeColor=none;fillColor=none;align=left;verticalAlign=top;spacingLeft=4;spacingRight=4;overflow=hidden;rotatable=0;points=[[0,0.5],[1,0.5]];portConstraint=eastwest;whiteSpace=wrap;html=1;" vertex="1" parent="ErJHk9rbV6wRSDwfODP1-9">
          <mxGeometry y="26" width="140" height="26" as="geometry" />
        </mxCell>
        <mxCell id="ErJHk9rbV6wRSDwfODP1-11" value="" style="line;strokeWidth=1;fillColor=none;align=left;verticalAlign=middle;spacingTop=-1;spacingLeft=3;spacingRight=3;rotatable=0;labelPosition=right;points=[];portConstraint=eastwest;strokeColor=inherit;" vertex="1" parent="ErJHk9rbV6wRSDwfODP1-9">
          <mxGeometry y="52" width="140" height="8" as="geometry" />
        </mxCell>
        <mxCell id="ErJHk9rbV6wRSDwfODP1-12" value="+ acquireTemp():Real&lt;br&gt;+ acquireHumid():Real" style="text;strokeColor=none;fillColor=none;align=left;verticalAlign=top;spacingLeft=4;spacingRight=4;overflow=hidden;rotatable=0;points=[[0,0.5],[1,0.5]];portConstraint=eastwest;whiteSpace=wrap;html=1;" vertex="1" parent="ErJHk9rbV6wRSDwfODP1-9">
          <mxGeometry y="60" width="140" height="40" as="geometry" />
        </mxCell>
        <mxCell id="ErJHk9rbV6wRSDwfODP1-13" value="" style="endArrow=block;endSize=16;endFill=0;html=1;rounded=0;exitX=0.5;exitY=0;exitDx=0;exitDy=0;entryX=0.5;entryY=1;entryDx=0;entryDy=0;edgeStyle=orthogonalEdgeStyle;" edge="1" parent="1" source="ErJHk9rbV6wRSDwfODP1-5" target="ErJHk9rbV6wRSDwfODP1-2">
          <mxGeometry width="160" relative="1" as="geometry">
            <mxPoint x="390" y="880" as="sourcePoint" />
            <mxPoint x="550" y="880" as="targetPoint" />
          </mxGeometry>
        </mxCell>
        <mxCell id="ErJHk9rbV6wRSDwfODP1-14" value="" style="endArrow=block;endSize=16;endFill=0;html=1;rounded=0;exitX=0.5;exitY=0;exitDx=0;exitDy=0;entryX=0.5;entryY=1;entryDx=0;entryDy=0;edgeStyle=orthogonalEdgeStyle;" edge="1" parent="1" source="ErJHk9rbV6wRSDwfODP1-9" target="ErJHk9rbV6wRSDwfODP1-2">
          <mxGeometry width="160" relative="1" as="geometry">
            <mxPoint x="380" y="920" as="sourcePoint" />
            <mxPoint x="490" y="870" as="targetPoint" />
          </mxGeometry>
        </mxCell>
        <mxCell id="ErJHk9rbV6wRSDwfODP1-15" value="CombinedMatrixSensorAdapter" style="swimlane;fontStyle=1;align=center;verticalAlign=top;childLayout=stackLayout;horizontal=1;startSize=26;horizontalStack=0;resizeParent=1;resizeParentMax=0;resizeLast=0;collapsible=1;marginBottom=0;whiteSpace=wrap;html=1;" vertex="1" parent="1">
          <mxGeometry x="590" y="910" width="210" height="120" as="geometry" />
        </mxCell>
        <mxCell id="ErJHk9rbV6wRSDwfODP1-16" value="-" style="text;strokeColor=none;fillColor=none;align=left;verticalAlign=top;spacingLeft=4;spacingRight=4;overflow=hidden;rotatable=0;points=[[0,0.5],[1,0.5]];portConstraint=eastwest;whiteSpace=wrap;html=1;" vertex="1" parent="ErJHk9rbV6wRSDwfODP1-15">
          <mxGeometry y="26" width="210" height="26" as="geometry" />
        </mxCell>
        <mxCell id="ErJHk9rbV6wRSDwfODP1-17" value="" style="line;strokeWidth=1;fillColor=none;align=left;verticalAlign=middle;spacingTop=-1;spacingLeft=3;spacingRight=3;rotatable=0;labelPosition=right;points=[];portConstraint=eastwest;strokeColor=inherit;" vertex="1" parent="ErJHk9rbV6wRSDwfODP1-15">
          <mxGeometry y="52" width="210" height="8" as="geometry" />
        </mxCell>
        <mxCell id="ErJHk9rbV6wRSDwfODP1-18" value="+ acquireTemp():Real&lt;br&gt;+ acquireHumid():Real&lt;br&gt;+ autocalibrate()" style="text;strokeColor=none;fillColor=none;align=left;verticalAlign=top;spacingLeft=4;spacingRight=4;overflow=hidden;rotatable=0;points=[[0,0.5],[1,0.5]];portConstraint=eastwest;whiteSpace=wrap;html=1;" vertex="1" parent="ErJHk9rbV6wRSDwfODP1-15">
          <mxGeometry y="60" width="210" height="60" as="geometry" />
        </mxCell>
        <mxCell id="ErJHk9rbV6wRSDwfODP1-19" value="" style="endArrow=block;endSize=16;endFill=0;html=1;rounded=0;exitX=0.5;exitY=0;exitDx=0;exitDy=0;entryX=0.5;entryY=1;entryDx=0;entryDy=0;edgeStyle=orthogonalEdgeStyle;" edge="1" parent="1" source="ErJHk9rbV6wRSDwfODP1-15" target="ErJHk9rbV6wRSDwfODP1-2">
          <mxGeometry width="160" relative="1" as="geometry">
            <mxPoint x="580" y="920" as="sourcePoint" />
            <mxPoint x="490" y="870" as="targetPoint" />
          </mxGeometry>
        </mxCell>
        <mxCell id="ErJHk9rbV6wRSDwfODP1-20" value="CombinedMatrixSensor" style="swimlane;fontStyle=1;align=center;verticalAlign=top;childLayout=stackLayout;horizontal=1;startSize=26;horizontalStack=0;resizeParent=1;resizeParentMax=0;resizeLast=0;collapsible=1;marginBottom=0;whiteSpace=wrap;html=1;" vertex="1" parent="1">
          <mxGeometry x="590" y="1070" width="210" height="130" as="geometry" />
        </mxCell>
        <mxCell id="ErJHk9rbV6wRSDwfODP1-21" value="-" style="text;strokeColor=none;fillColor=none;align=left;verticalAlign=top;spacingLeft=4;spacingRight=4;overflow=hidden;rotatable=0;points=[[0,0.5],[1,0.5]];portConstraint=eastwest;whiteSpace=wrap;html=1;" vertex="1" parent="ErJHk9rbV6wRSDwfODP1-20">
          <mxGeometry y="26" width="210" height="26" as="geometry" />
        </mxCell>
        <mxCell id="ErJHk9rbV6wRSDwfODP1-22" value="" style="line;strokeWidth=1;fillColor=none;align=left;verticalAlign=middle;spacingTop=-1;spacingLeft=3;spacingRight=3;rotatable=0;labelPosition=right;points=[];portConstraint=eastwest;strokeColor=inherit;" vertex="1" parent="ErJHk9rbV6wRSDwfODP1-20">
          <mxGeometry y="52" width="210" height="8" as="geometry" />
        </mxCell>
        <mxCell id="ErJHk9rbV6wRSDwfODP1-23" value="+ acquireSensor(mode:Integer):Real&lt;br&gt;+ acquireAll():Map&lt;br&gt;+ reset()&lt;br&gt;+ calibrate(timeout:Integer)" style="text;strokeColor=none;fillColor=none;align=left;verticalAlign=top;spacingLeft=4;spacingRight=4;overflow=hidden;rotatable=0;points=[[0,0.5],[1,0.5]];portConstraint=eastwest;whiteSpace=wrap;html=1;" vertex="1" parent="ErJHk9rbV6wRSDwfODP1-20">
          <mxGeometry y="60" width="210" height="70" as="geometry" />
        </mxCell>
        <mxCell id="ErJHk9rbV6wRSDwfODP1-24" value="" style="endArrow=classic;html=1;rounded=0;entryX=0.5;entryY=0;entryDx=0;entryDy=0;exitX=0.499;exitY=0.998;exitDx=0;exitDy=0;exitPerimeter=0;" edge="1" parent="1" source="ErJHk9rbV6wRSDwfODP1-18" target="ErJHk9rbV6wRSDwfODP1-20">
          <mxGeometry width="50" height="50" relative="1" as="geometry">
            <mxPoint x="710" y="1060" as="sourcePoint" />
            <mxPoint x="660" y="1040" as="targetPoint" />
          </mxGeometry>
        </mxCell>
        <mxCell id="ErJHk9rbV6wRSDwfODP1-25" value="adaptee" style="text;html=1;align=center;verticalAlign=middle;resizable=0;points=[];autosize=1;strokeColor=none;fillColor=none;" vertex="1" parent="1">
          <mxGeometry x="690" y="1033" width="70" height="30" as="geometry" />
        </mxCell>
        <mxCell id="ErJHk9rbV6wRSDwfODP1-27" value="this.module = module&lt;br&gt;this.module.reset();&lt;br&gt;this.poolingPeriod = period;&lt;br&gt;this.module.autocalibrate();&lt;br&gt;this.createCallback(this.poolingPeriod);" style="whiteSpace=wrap;html=1;shape=mxgraph.basic.document;align=left;" vertex="1" parent="1">
          <mxGeometry x="60" y="440" width="220" height="90" as="geometry" />
        </mxCell>
        <mxCell id="ErJHk9rbV6wRSDwfODP1-28" value="" style="endArrow=classic;html=1;rounded=0;entryX=0.5;entryY=1;entryDx=0;entryDy=0;entryPerimeter=0;exitX=0.056;exitY=0.533;exitDx=0;exitDy=0;exitPerimeter=0;edgeStyle=orthogonalEdgeStyle;" edge="1" parent="1" source="ErJHk9rbV6wRSDwfODP1-1" target="ErJHk9rbV6wRSDwfODP1-27">
          <mxGeometry width="50" height="50" relative="1" as="geometry">
            <mxPoint x="240" y="570" as="sourcePoint" />
            <mxPoint x="300" y="640" as="targetPoint" />
          </mxGeometry>
        </mxCell>
        <mxCell id="ErJHk9rbV6wRSDwfODP1-29" value="temp = this.module.acquireTemp();&lt;br&gt;this.displayTemp(temp);&lt;br&gt;humid = this.module.acquireHumid();&lt;br&gt;this.displayHumid(humid);" style="whiteSpace=wrap;html=1;shape=mxgraph.basic.document;align=left;" vertex="1" parent="1">
          <mxGeometry x="50" y="610" width="220" height="70" as="geometry" />
        </mxCell>
        <mxCell id="ErJHk9rbV6wRSDwfODP1-30" value="" style="endArrow=classic;html=1;rounded=0;entryX=0.5;entryY=0;entryDx=0;entryDy=0;entryPerimeter=0;exitX=0.056;exitY=0.667;exitDx=0;exitDy=0;exitPerimeter=0;edgeStyle=orthogonalEdgeStyle;" edge="1" parent="1" source="ErJHk9rbV6wRSDwfODP1-1" target="ErJHk9rbV6wRSDwfODP1-29">
          <mxGeometry width="50" height="50" relative="1" as="geometry">
            <mxPoint x="280" y="580" as="sourcePoint" />
            <mxPoint x="290" y="680" as="targetPoint" />
          </mxGeometry>
        </mxCell>
        <mxCell id="ErJHk9rbV6wRSDwfODP1-32" value="" style="endArrow=classic;html=1;rounded=0;" edge="1" parent="1">
          <mxGeometry relative="1" as="geometry">
            <mxPoint x="430" y="920" as="sourcePoint" />
            <mxPoint x="530" y="920" as="targetPoint" />
          </mxGeometry>
        </mxCell>
        <mxCell id="ErJHk9rbV6wRSDwfODP1-33" value="" style="shape=message;html=1;outlineConnect=0;" vertex="1" parent="ErJHk9rbV6wRSDwfODP1-32">
          <mxGeometry width="20" height="14" relative="1" as="geometry">
            <mxPoint x="-10" y="-7" as="offset" />
          </mxGeometry>
        </mxCell>
        <mxCell id="ErJHk9rbV6wRSDwfODP1-34" value="" style="endArrow=classic;html=1;rounded=0;" edge="1" parent="1">
          <mxGeometry relative="1" as="geometry">
            <mxPoint x="430" y="920" as="sourcePoint" />
            <mxPoint x="530" y="920" as="targetPoint" />
          </mxGeometry>
        </mxCell>
        <mxCell id="ErJHk9rbV6wRSDwfODP1-35" value="" style="shape=message;html=1;outlineConnect=0;" vertex="1" parent="ErJHk9rbV6wRSDwfODP1-34">
          <mxGeometry width="20" height="14" relative="1" as="geometry">
            <mxPoint x="-10" y="-7" as="offset" />
          </mxGeometry>
        </mxCell>
        <mxCell id="ErJHk9rbV6wRSDwfODP1-36" value="" style="endArrow=classic;html=1;rounded=0;" edge="1" parent="1">
          <mxGeometry relative="1" as="geometry">
            <mxPoint x="430" y="920" as="sourcePoint" />
            <mxPoint x="530" y="920" as="targetPoint" />
          </mxGeometry>
        </mxCell>
        <mxCell id="ErJHk9rbV6wRSDwfODP1-37" value="" style="shape=message;html=1;outlineConnect=0;" vertex="1" parent="ErJHk9rbV6wRSDwfODP1-36">
          <mxGeometry width="20" height="14" relative="1" as="geometry">
            <mxPoint x="-10" y="-7" as="offset" />
          </mxGeometry>
        </mxCell>
        <mxCell id="ErJHk9rbV6wRSDwfODP1-38" value="" style="endArrow=classic;html=1;rounded=0;" edge="1" parent="1">
          <mxGeometry relative="1" as="geometry">
            <mxPoint x="430" y="920" as="sourcePoint" />
            <mxPoint x="530" y="920" as="targetPoint" />
          </mxGeometry>
        </mxCell>
        <mxCell id="ErJHk9rbV6wRSDwfODP1-39" value="" style="shape=message;html=1;outlineConnect=0;" vertex="1" parent="ErJHk9rbV6wRSDwfODP1-38">
          <mxGeometry width="20" height="14" relative="1" as="geometry">
            <mxPoint x="-10" y="-7" as="offset" />
          </mxGeometry>
        </mxCell>
      </root>
    </mxGraphModel>
  </diagram>
</mxfile>
